<?xml version="1.0" standalone="no"?>
<!DOCTYPE svg PUBLIC "-//W3C//DTD SVG 20010904//EN"
 "http://www.w3.org/TR/2001/REC-SVG-20010904/DTD/svg10.dtd">
<svg version="1.0" xmlns="http://www.w3.org/2000/svg"
 width="512.000000pt" height="512.000000pt" viewBox="0 0 512.000000 512.000000"
 preserveAspectRatio="xMidYMid meet">
<metadata>
Created by potrace 1.11, written by Peter Selinger 2001-2013
</metadata>
<g transform="translate(0.000000,512.000000) scale(0.100000,-0.100000)"
fill="#000000" stroke="none">
<path d="M2458 4755 c-2 -2 -23 -6 -48 -10 -342 -47 -698 -308 -952 -696 -66
-100 -198 -371 -198 -406 0 -4 15 7 33 23 97 91 266 141 337 99 14 -8 32 -17
40 -21 20 -8 99 -103 130 -158 l26 -44 41 44 c89 94 206 145 331 146 84 0 166
-54 235 -157 l41 -60 1 -740 c0 -407 -2 -744 -6 -750 -10 -13 -656 -12 -670 2
-8 8 -17 439 -19 887 l0 139 -35 32 c-67 64 -225 107 -399 110 -268 5 -463
-83 -584 -261 -32 -48 -70 -130 -64 -141 1 -2 -5 -17 -13 -35 -13 -34 -28
-144 -27 -208 1 -103 6 -150 16 -151 6 -1 97 -2 203 -3 105 -1 194 -4 197 -7
4 -3 9 -32 11 -65 12 -132 27 -263 41 -334 7 -41 16 -86 18 -100 3 -14 7 -34
10 -45 30 -131 40 -171 62 -240 94 -289 222 -517 386 -686 91 -93 231 -209
253 -209 2 0 26 -13 52 -28 85 -50 249 -108 373 -132 141 -27 403 -32 540 -11
41 7 93 15 115 18 70 10 247 73 335 120 137 73 291 198 385 314 37 46 128 184
147 224 11 22 27 54 36 70 71 130 156 400 197 625 12 68 35 233 40 295 8 94
13 119 22 122 15 5 188 89 258 125 87 45 155 94 155 112 0 12 -85 56 -210 106
-30 12 -64 26 -75 30 -11 5 -42 16 -68 26 -26 9 -50 21 -54 26 -6 11 -10 46
-17 173 -15 257 -70 373 -207 438 -61 29 -149 42 -254 39 -142 -4 -250 -45
-314 -120 -74 -86 -74 -80 -78 -696 -2 -302 -5 -552 -8 -554 -2 -3 -145 -5
-317 -6 l-313 -1 0 740 0 740 34 45 c44 58 105 114 159 146 43 26 83 32 144
19 50 -11 185 -78 257 -129 66 -45 81 -49 81 -18 0 21 45 89 79 120 52 46 130
74 211 75 103 1 140 -8 251 -57 l96 -43 -37 88 c-107 250 -262 475 -450 654
-176 169 -404 290 -629 336 -51 10 -325 22 -333 14z m1333 -1786 c21 -21 20
-59 -3 -86 -26 -32 -88 2 -88 47 0 56 52 78 91 39z"/>
</g>
</svg>
